<svg width="770" height="181" viewBox="0 0 770 181" fill="none" xmlns="http://www.w3.org/2000/svg">
<path d="M78.0041 113.826C125.388 113.826 156.232 91.3906 156.232 56.9129C156.232 22.4352 125.388 0 78.0041 0C31.0675 0 0 22.4352 0 56.9129C0 91.3906 31.0675 113.826 78.0041 113.826ZM78.0041 96.6695C42.4664 96.6695 25.4798 84.4621 25.4798 56.9129C25.4798 29.3638 42.4664 16.9914 78.0041 16.9914C113.542 16.9914 130.752 29.3638 130.752 56.9129C130.752 84.4621 113.542 96.6695 78.0041 96.6695Z" fill="#B8C2A9"/>
<path d="M252.082 113.826C281.449 113.826 300.504 104.423 306.781 88.2563H308.35V112.176H330.32V55.7582H250.737V69.2853H306.333V70.77C306.333 89.4111 292.21 96.6695 256.341 96.6695C221.145 96.6695 204.108 84.4621 204.108 56.9129C204.108 29.3638 221.37 16.9914 257.462 16.9914C288.623 16.9914 303.643 25.5696 303.643 41.4062V42.7259H330.32V41.4062C330.32 15.8366 300.728 0 258.135 0C210.161 0 178.552 22.4352 178.552 56.9129C178.552 91.3906 207.919 113.826 252.082 113.826Z" fill="#B8C2A9"/>
<path d="M657.999 113.826V64.7279H746.08V113.826H770V0H746.08V48.2486H657.999V0H633.855V113.826H657.999Z" fill="#B8C2A9"/>
<rect x="351.358" y="7.47571" width="261.65" height="14.9514" fill="#B8C2A9"/>
<rect x="351.358" y="52.33" width="261.65" height="14.9514" fill="#B8C2A9"/>
<rect x="351.358" y="97.1843" width="261.65" height="14.9514" fill="#B8C2A9"/>
<rect y="158.463" width="769.999" height="22.3188" fill="url(#paint0_linear_1501_198)"/>
<defs>
<linearGradient id="paint0_linear_1501_198" x1="769.999" y1="169.623" x2="378.304" y2="169.623" gradientUnits="userSpaceOnUse">
<stop stop-color="#B8C2A9" stop-opacity="0.6"/>
<stop offset="1" stop-color="#B8C2A9" stop-opacity="0"/>
</linearGradient>
</defs>
</svg>
