<svg width="62" height="77" viewBox="0 0 62 77" fill="none" xmlns="http://www.w3.org/2000/svg">
<path fill-rule="evenodd" clip-rule="evenodd" d="M38.5335 17.5957C38.5335 17.5957 37.5704 11.2417 40.7809 6.67984C43.9914 2.118 61.8099 0 61.8099 0C61.8099 0 57.8585 2.44384 55.7099 6.67984C53.5613 10.9158 51.6967 15.9664 48.8072 17.5957C45.9178 19.2249 39.9783 18.5732 39.9783 18.5732C39.9783 18.5732 46.0049 10.846 47.4496 9.3797C48.2184 8.59946 43.2847 11.7514 40.7809 14.5001C40.1478 15.1952 38.5335 17.5957 38.5335 17.5957Z" fill="white"/>
<path fill-rule="evenodd" clip-rule="evenodd" d="M34.5344 12.6239C34.5344 12.6239 35.2382 8.38789 32.892 5.34667C30.5459 2.30544 17.5247 0.893442 17.5247 0.893442C17.5247 0.893442 20.4123 2.52267 21.9824 5.34667C23.5525 8.17066 24.9151 11.5377 27.0266 12.6239C29.1382 13.71 33.4786 13.2756 33.4786 13.2756C33.4786 13.2756 29.0745 8.12411 28.0187 7.14658C27.457 6.62641 31.0623 8.72768 32.892 10.5602C33.3547 11.0236 34.5344 12.6239 34.5344 12.6239Z" fill="white"/>
<circle cx="28.6479" cy="47.4308" r="28.6479" fill="white"/>
<path fill-rule="evenodd" clip-rule="evenodd" d="M36.3807 45.1619C36.3807 42.7174 34.3746 40.7345 31.897 40.7345C29.4239 40.7345 27.4197 42.7159 27.4197 45.1619C27.4178 47.6108 29.4239 49.5917 31.9014 49.5917C34.376 49.5937 36.3807 47.6127 36.3807 45.1619ZM21.2831 42.7232C21.2831 45.189 21.9898 47.4847 23.2179 49.4337C22.5425 48.1382 22.1605 46.6687 22.1625 45.1093C22.1605 39.877 26.4549 35.6285 31.7538 35.6285C37.0508 35.6285 41.3418 39.8736 41.3457 45.1078C41.3457 50.3469 37.0508 54.5925 31.7538 54.5901C30.1761 54.5901 28.6875 54.2136 27.3773 53.5474C29.3516 54.7583 31.6756 55.4583 34.1678 55.4583C41.2846 55.4583 47.0564 49.7576 47.0564 42.7232C47.0564 35.687 41.2826 29.9839 34.1678 29.9839C27.0511 29.9839 21.2817 35.687 21.2831 42.7232ZM49.7725 34.2614C51.0621 36.7398 51.7962 39.5517 51.7962 42.5313C51.7962 52.5487 43.582 60.6683 33.4443 60.6703C23.3077 60.6703 15.095 52.5531 15.0935 42.5313C15.0935 32.5154 23.3091 24.3963 33.4419 24.3963C36.4603 24.3963 39.3032 25.1175 41.8136 26.3927C38.041 24.0739 33.5896 22.7329 28.8237 22.7329C15.2055 22.7329 4.16699 33.6431 4.16699 47.1023C4.16699 60.5596 15.2055 71.4698 28.8203 71.4698C42.4361 71.4679 53.4761 60.561 53.4761 47.0985C53.4761 42.3882 52.1204 37.9903 49.7725 34.2614Z" fill="#FF9100"/>
</svg>
