<svg width="427" height="106" viewBox="0 0 427 106" fill="none" xmlns="http://www.w3.org/2000/svg">
<path d="M38.1015 105.026L11.8631 24.7612C8.60657 14.8381 4.6522 7.3727 0 2.36483V2.08661H29.1693V2.36483C25.8197 7.8364 25.7267 15.5337 28.8902 25.4567L46.8942 81.7953L68.5269 27.6824L67.4104 24.7612C63.5956 14.189 59.6412 6.72354 55.5473 2.36483V2.08661H84.7166V2.36483C83.3209 4.77603 82.4835 7.83639 82.2044 11.5459C82.0183 15.1627 82.7626 19.7997 84.4374 25.4567L103.977 80.6824L119.887 32.273C124.167 19.1041 124.074 9.13474 119.608 2.36483V2.08661H138.031V2.36483C132.355 8.20735 127.796 16.6465 124.353 27.6824L99.0919 105.026H96.3005L69.9226 31.7165L40.8928 105.026H38.1015Z" fill="#B8C2A9"/>
<path d="M186.816 106C173.324 106 161.182 100.807 150.389 90.4199C139.689 79.9405 134.339 67.5136 134.339 53.1391C134.339 38.7647 139.689 26.3377 150.389 15.8583C161.182 5.28609 173.324 0 186.816 0C195.562 0 203.982 2.36483 212.077 7.09449C220.172 11.7314 226.778 18.1767 231.895 26.4304C237.013 34.6842 239.572 43.5871 239.572 53.1391C239.572 62.6912 237.013 71.594 231.895 79.8478C226.778 88.0087 220.172 94.4077 212.077 99.0446C203.982 103.682 195.562 106 186.816 106ZM186.816 103.218C198.446 103.218 207.192 98.6737 213.054 89.5853C218.916 80.4969 221.847 68.3482 221.847 53.1391C221.847 38.0228 218.869 25.874 212.914 16.6929C207.053 7.41907 198.353 2.78215 186.816 2.78215C175.278 2.78215 166.579 7.41907 160.717 16.6929C154.948 25.874 152.064 38.0228 152.064 53.1391C152.064 68.1627 154.948 80.2651 160.717 89.4462C166.579 98.6273 175.278 103.218 186.816 103.218Z" fill="#B8C2A9"/>
<path d="M250.661 103.635C252.894 99.3692 254.382 95.5669 255.127 92.2283C255.871 88.8898 256.243 84.3919 256.243 78.7349V27.2651C256.243 21.608 255.871 17.1102 255.127 13.7717C254.382 10.4331 252.894 6.6308 250.661 2.36483V2.08661H286.25C309.79 2.08661 321.56 10.2012 321.56 26.4304C321.56 32.4584 319.885 37.7445 316.536 42.2887C313.186 46.7402 308.115 50.0324 301.323 52.1653L317.931 84.5774C320.816 90.3272 323.281 94.3613 325.328 96.6798C327.468 98.9983 330.399 101.085 334.121 102.94V103.913H309.557L284.436 54.8084H272.293V78.7349C272.293 84.5774 272.619 89.1216 273.27 92.3674C274.015 95.6133 275.55 99.3692 277.876 103.635V103.913H250.661V103.635ZM283.179 4.86877H278.992C276.294 4.86877 274.061 4.91514 272.293 5.00788V52.0262H283.179C297.88 52.0262 305.231 43.4479 305.231 26.2913C305.231 19.4287 303.556 14.1426 300.206 10.4331C296.95 6.72354 291.274 4.86877 283.179 4.86877Z" fill="#B8C2A9"/>
<path d="M340.888 103.635C343.121 99.3692 344.61 95.5669 345.354 92.2283C346.098 88.8898 346.47 84.3919 346.47 78.7349V27.2651C346.47 21.608 346.098 17.1102 345.354 13.7717C344.61 10.4331 343.121 6.6308 340.888 2.36483V2.08661H368.103V2.36483C365.777 6.6308 364.242 10.3867 363.497 13.6325C362.846 16.8784 362.521 21.4226 362.521 27.2651V78.7349C362.521 84.5774 362.846 89.1216 363.497 92.3674C364.242 95.6133 365.777 99.3692 368.103 103.635V103.913H340.888V103.635ZM402.716 103.913L364.754 53.6955L391.132 23.3701C399.506 13.6325 402.111 6.6308 398.947 2.36483V2.08661H420.999V2.36483C415.416 5.23972 410.857 8.20735 407.321 11.2677C403.786 14.2353 399.878 18.1767 395.598 23.0919L377.454 43.6798L409.833 86.5249C415.509 94.0367 421.185 99.7402 426.86 103.635L427 103.913H402.716Z" fill="#B8C2A9"/>
</svg>
