<svg width="802" height="106" viewBox="0 0 802 106" fill="none" xmlns="http://www.w3.org/2000/svg">
<path d="M0 103.635C2.22471 99.3692 3.70785 95.5669 4.44942 92.2283C5.19099 88.8898 5.56177 84.392 5.56177 78.7349V27.2651C5.56177 21.608 5.19099 17.1102 4.44942 13.7717C3.70785 10.4331 2.22471 6.6308 0 2.36483V2.08661H35.4563C58.9084 2.08661 70.6345 10.2012 70.6345 26.4304C70.6345 32.4584 68.966 37.7445 65.6289 42.2887C62.2919 46.7402 57.2399 50.0324 50.4731 52.1653L67.0194 84.5774C69.8929 90.3272 72.3494 94.3613 74.3887 96.6798C76.5207 98.9983 79.4407 101.085 83.1485 102.94V103.913H58.6767L33.6487 54.8084H21.5519V78.7349C21.5519 84.5774 21.8763 89.1216 22.5252 92.3674C23.2667 95.6133 24.7962 99.3692 27.1136 103.635V103.913H0V103.635ZM32.3973 4.86877H28.226C25.5378 4.86877 23.3131 4.91514 21.5519 5.00788V52.0262H32.3973C47.0433 52.0262 54.3663 43.4479 54.3663 26.2913C54.3663 19.4287 52.6978 14.1426 49.3607 10.4331C46.1164 6.72354 40.4619 4.86877 32.3973 4.86877Z" fill="#B8C2A9"/>
<path d="M161.081 103.913H89.89V103.635C93.5051 95.2887 95.3127 87.5451 95.3127 80.4042V25.5958C95.3127 21.2371 94.8956 17.4348 94.0613 14.189C93.227 10.9431 91.8366 7.00175 89.89 2.36483V2.08661H154.128L159.551 26.8478L158.439 27.2651C157.512 26.3377 155.055 23.5556 151.069 18.9186C147.084 14.2817 143.839 10.8504 141.336 8.62467C138.926 6.39895 136.794 5.23972 134.94 5.14698L111.442 4.17323V51.1916H123.4C124.975 51.1916 126.644 50.6352 128.405 49.5223C130.166 48.4094 131.603 47.2502 132.716 46.0446C133.828 44.839 135.218 43.1697 136.887 41.0367C138.648 38.811 139.9 37.3272 140.641 36.5853H141.893V68.0236H140.641C140.178 67.5599 138.973 66.2152 137.026 63.9895C135.172 61.7638 133.735 60.0945 132.716 58.9816C131.696 57.8688 130.259 56.7559 128.405 55.643C126.644 54.5302 124.975 53.9737 123.4 53.9737H111.442V101.827L136.192 100.853C139.714 100.76 143.468 99.2765 147.454 96.4016C151.44 93.4339 154.685 90.4663 157.187 87.4987C159.783 84.4383 162.749 80.5897 166.086 75.9528L167.199 76.3701L161.081 103.913Z" fill="#B8C2A9"/>
<path d="M235.208 29.2126L233.956 29.6299C229.321 19.7996 224.687 12.8906 220.052 8.90289C215.417 4.8224 210.458 2.78215 205.174 2.78215C200.447 2.78215 196.739 4.21959 194.05 7.09449C191.362 9.87664 190.018 13.6325 190.018 18.3622C190.018 20.8661 190.482 23.231 191.409 25.4567C192.428 27.6824 193.541 29.5372 194.746 31.021C195.951 32.5048 197.805 34.0814 200.307 35.7507C202.903 37.4199 204.989 38.6719 206.564 39.5066C208.233 40.3412 210.736 41.5468 214.073 43.1234C217.595 44.8854 220.376 46.3228 222.415 47.4357C224.455 48.4558 226.865 50.0324 229.646 52.1653C232.519 54.2056 234.698 56.2458 236.181 58.2861C237.757 60.3263 239.101 62.923 240.213 66.0761C241.418 69.2292 242.021 72.6605 242.021 76.3701C242.021 86.2003 238.591 93.6194 231.731 98.6273C224.872 103.542 216.159 106 205.591 106C196.229 106 186.681 104.192 176.948 100.575L174.167 74.8399L175.279 74.4226C180.563 84.3456 185.986 91.6255 191.548 96.2625C197.109 100.899 203.088 103.218 209.484 103.218C215.51 103.218 220.144 101.409 223.389 97.7926C226.633 94.0831 228.255 89.5389 228.255 84.1601C228.255 78.1321 226.355 73.217 222.555 69.4147C218.847 65.6124 213.563 62.042 206.704 58.7034C203.83 57.3123 201.744 56.2922 200.447 55.643C199.149 54.9939 197.248 53.9274 194.746 52.4436C192.243 50.9598 190.343 49.7078 189.045 48.6877C187.84 47.6675 186.357 46.3228 184.595 44.6535C182.834 42.8915 181.536 41.2222 180.702 39.6457C179.961 37.9764 179.265 36.0289 178.617 33.8031C177.968 31.4847 177.643 29.0735 177.643 26.5695C177.643 17.5739 180.702 10.8968 186.82 6.53806C192.938 2.17935 200.586 0 209.762 0C217.456 0 225.011 1.34471 232.427 4.03412L235.208 29.2126Z" fill="#B8C2A9"/>
<path d="M302.607 106C289.166 106 277.069 100.807 266.317 90.42C255.656 79.9405 250.326 67.5136 250.326 53.1391C250.326 38.7647 255.656 26.3377 266.317 15.8583C277.069 5.28609 289.166 0 302.607 0C311.321 0 319.71 2.36483 327.774 7.09449C335.839 11.7314 342.42 18.1767 347.518 26.4304C352.617 34.6842 355.166 43.5871 355.166 53.1391C355.166 62.6912 352.617 71.594 347.518 79.8478C342.42 88.0087 335.839 94.4077 327.774 99.0446C319.71 103.682 311.321 106 302.607 106ZM302.607 103.218C314.194 103.218 322.908 98.6737 328.747 89.5853C334.587 80.4969 337.507 68.3482 337.507 53.1391C337.507 38.0228 334.541 25.874 328.608 16.6929C322.769 7.41907 314.101 2.78215 302.607 2.78215C291.113 2.78215 282.446 7.41907 276.606 16.6929C270.859 25.874 267.985 38.0228 267.985 53.1391C267.985 68.1627 270.859 80.2651 276.606 89.4462C282.446 98.6273 291.113 103.218 302.607 103.218Z" fill="#B8C2A9"/>
<path d="M407.82 106C396.697 106 387.566 103.125 380.428 97.3753C373.384 91.5328 369.861 82.6763 369.861 70.8058V27.2651C369.861 21.4226 369.49 16.8784 368.749 13.6325C368.1 10.3867 366.617 6.6308 364.299 2.36483V2.08661H391.413V2.36483C387.705 9.41295 385.851 17.713 385.851 27.2651V70.3885C385.851 91.811 394.472 102.522 411.713 102.522C421.354 102.522 428.445 99.3692 432.987 93.063C437.529 86.7568 439.8 78.7813 439.8 69.1365V29.769C439.8 23.4628 439.152 18.5013 437.854 14.8845C436.556 11.2677 433.868 7.09449 429.789 2.36483V2.08661H452.314L453.01 2.36483C448.931 7.09449 446.243 11.2677 444.945 14.8845C443.647 18.5013 442.998 23.4628 442.998 29.769V68.9974C442.998 80.0332 440.218 88.9825 434.656 95.8451C429.187 102.615 420.242 106 407.82 106Z" fill="#B8C2A9"/>
<path d="M461.671 103.635C463.895 99.3692 465.378 95.5669 466.12 92.2283C466.862 88.8898 467.232 84.392 467.232 78.7349V27.2651C467.232 21.608 466.862 17.1102 466.12 13.7717C465.378 10.4331 463.895 6.6308 461.671 2.36483V2.08661H497.127C520.579 2.08661 532.305 10.2012 532.305 26.4304C532.305 32.4584 530.636 37.7445 527.299 42.2887C523.962 46.7402 518.91 50.0324 512.144 52.1653L528.69 84.5774C531.563 90.3272 534.02 94.3613 536.059 96.6798C538.191 98.9983 541.111 101.085 544.819 102.94V103.913H520.347L495.319 54.8084H483.222V78.7349C483.222 84.5774 483.547 89.1216 484.196 92.3674C484.937 95.6133 486.467 99.3692 488.784 103.635V103.913H461.671V103.635ZM494.068 4.86877H489.897C487.208 4.86877 484.984 4.91514 483.222 5.00788V52.0262H494.068C508.714 52.0262 516.037 43.4479 516.037 26.2913C516.037 19.4287 514.368 14.1426 511.031 10.4331C507.787 6.72354 502.132 4.86877 494.068 4.86877Z" fill="#B8C2A9"/>
<path d="M634.425 95.9842C632.386 97.6535 627.52 99.7402 619.826 102.244C612.225 104.748 604.346 106 596.188 106C580.43 106 567.684 100.946 557.951 90.8373C548.218 80.7288 543.352 68.1164 543.352 53C543.352 38.0691 548.589 25.5031 559.063 15.3018C569.538 5.10061 582.794 0 598.83 0C610.973 0 622.653 2.22572 633.869 6.67716L636.65 29.4908L635.538 29.9081C628.308 19.7069 622.004 12.6588 616.628 8.76378C611.344 4.77603 604.809 2.78215 597.023 2.78215C584.787 2.78215 575.702 7.32633 569.77 16.4147C563.93 25.5031 561.01 37.6982 561.01 53C561.01 68.2091 563.93 80.4042 569.77 89.5853C575.61 98.6737 584.416 103.218 596.188 103.218C605.365 103.218 612.966 100.436 618.992 94.8714C625.017 89.3071 630.718 81.0534 636.094 70.1102L637.206 70.5276L634.425 95.9842Z" fill="#B8C2A9"/>
<path d="M721.06 103.913H649.869V103.635C653.484 95.2887 655.292 87.5451 655.292 80.4042V25.5958C655.292 21.2371 654.875 17.4348 654.041 14.189C653.206 10.9431 651.816 7.00175 649.869 2.36483V2.08661H714.108L719.53 26.8478L718.418 27.2651C717.491 26.3377 715.035 23.5556 711.049 18.9186C707.063 14.2817 703.818 10.8504 701.316 8.62467C698.905 6.39895 696.773 5.23972 694.92 5.14698L671.421 4.17323V51.1916H683.379C684.955 51.1916 686.623 50.6352 688.384 49.5223C690.146 48.4094 691.582 47.2502 692.695 46.0446C693.807 44.839 695.198 43.1697 696.866 41.0367C698.627 38.811 699.879 37.3272 700.62 36.5853H701.872V68.0236H700.62C700.157 67.5599 698.952 66.2152 697.005 63.9895C695.151 61.7638 693.714 60.0945 692.695 58.9816C691.675 57.8688 690.238 56.7559 688.384 55.643C686.623 54.5302 684.955 53.9737 683.379 53.9737H671.421V101.827L696.171 100.853C699.693 100.76 703.448 99.2765 707.434 96.4016C711.419 93.4339 714.664 90.4663 717.167 87.4987C719.762 84.4383 722.728 80.5897 726.065 75.9528L727.178 76.3701L721.06 103.913Z" fill="#B8C2A9"/>
<path d="M795.187 29.2126L793.935 29.6299C789.301 19.7996 784.666 12.8906 780.031 8.90289C775.396 4.8224 770.437 2.78215 765.153 2.78215C760.426 2.78215 756.718 4.21959 754.03 7.09449C751.342 9.87664 749.997 13.6325 749.997 18.3622C749.997 20.8661 750.461 23.231 751.388 25.4567C752.407 27.6824 753.52 29.5372 754.725 31.021C755.93 32.5048 757.784 34.0814 760.287 35.7507C762.882 37.4199 764.968 38.6719 766.544 39.5066C768.212 40.3412 770.715 41.5468 774.052 43.1234C777.575 44.8854 780.355 46.3228 782.395 47.4357C784.434 48.4558 786.844 50.0324 789.625 52.1653C792.499 54.2056 794.677 56.2458 796.16 58.2861C797.736 60.3263 799.08 62.923 800.192 66.0761C801.398 69.2292 802 72.6605 802 76.3701C802 86.2003 798.57 93.6194 791.711 98.6273C784.851 103.542 776.138 106 765.57 106C756.208 106 746.66 104.192 736.927 100.575L734.146 74.8399L735.259 74.4226C740.542 84.3456 745.965 91.6255 751.527 96.2625C757.089 100.899 763.068 103.218 769.464 103.218C775.489 103.218 780.124 101.409 783.368 97.7926C786.612 94.0831 788.235 89.5389 788.235 84.1601C788.235 78.1321 786.334 73.217 782.534 69.4147C778.826 65.6124 773.542 62.042 766.683 58.7034C763.809 57.3123 761.724 56.2922 760.426 55.643C759.128 54.9939 757.228 53.9274 754.725 52.4436C752.222 50.9598 750.322 49.7078 749.024 48.6877C747.819 47.6675 746.336 46.3228 744.575 44.6535C742.813 42.8915 741.516 41.2222 740.681 39.6457C739.94 37.9764 739.245 36.0289 738.596 33.8031C737.947 31.4847 737.622 29.0735 737.622 26.5695C737.622 17.5739 740.681 10.8968 746.799 6.53806C752.917 2.17935 760.565 0 769.742 0C777.435 0 784.99 1.34471 792.406 4.03412L795.187 29.2126Z" fill="#B8C2A9"/>
</svg>
