<svg width="451" height="548" viewBox="0 0 451 548" fill="none" xmlns="http://www.w3.org/2000/svg">
<rect width="450" height="548" fill="#C4C4C4" fill-opacity="0.01"/>
<rect width="451" height="548" fill="#A265FF"/>
<g opacity="0.7">
<path fill-rule="evenodd" clip-rule="evenodd" d="M430 411C430 424.317 427.655 437.087 423.355 448.918C414.786 430.498 406.065 413.335 395.801 397.498C404.106 384.384 410.893 370.545 415.597 356.281C424.765 372.43 430 391.103 430 411ZM396.194 331.237C399.036 333.988 401.73 336.889 404.266 339.927C400.739 354.87 394.498 369.625 386.208 383.736C382.678 379.038 378.957 374.472 375.003 370.039C368.53 362.78 361.462 355.911 353.626 349.415C367.044 341.065 381.303 334.755 396.194 331.237ZM381.644 319.354C363.815 307.143 342.242 300 319 300C304.64 300 290.918 302.727 278.321 307.691C303.271 316.964 323.609 327.532 340.644 339.506C353.456 330.978 367.169 324.034 381.644 319.354ZM327.436 349.086C313.945 340.124 298.16 331.943 279.304 324.515C283.039 344.544 288.94 362.282 296.928 377.772C306.252 367.449 316.455 357.72 327.436 349.086ZM305.086 391.726C310.275 399.586 316.107 406.749 322.568 413.222C329.836 420.503 337.959 426.972 346.953 432.605C358.254 421.823 368.537 410.028 377.291 397.568C373.013 391.549 368.462 385.787 363.537 380.264C356.688 372.585 349.076 365.328 340.409 358.482C327.672 368.046 315.831 379.372 305.086 391.726ZM294.936 404.111C299.981 411.276 305.566 417.935 311.694 424.076C318.811 431.206 326.616 437.591 335.092 443.235C318.937 456.828 301.717 467.886 285.171 475.578C273.006 481.233 261.651 484.866 251.632 486.551C253.683 478.68 257.021 469.244 261.805 458.707C269.669 441.386 280.904 422.272 294.936 404.111ZM286.242 390.322C260.062 422.913 242.407 459.153 236.201 484.93C218.662 465.3 208 439.395 208 411C208 370.421 229.775 334.927 262.278 315.567C266.304 344.049 274.265 369.049 286.242 390.322ZM254.839 501.589C272.956 514.444 295.095 522 319 522C357.84 522 392.021 502.051 411.856 471.84C388.348 468.006 367.361 461.242 349.022 451.524C318.752 478.028 284.045 496.489 254.839 501.589ZM360.999 440.377C375.344 447.356 391.543 452.542 409.64 455.865C402.118 439.676 394.67 424.869 386.331 411.278C378.672 421.597 370.124 431.353 360.999 440.377Z" fill="#C8A3FF"/>
</g>
</svg>
