<svg width="411" height="109" viewBox="0 0 411 109" fill="none" xmlns="http://www.w3.org/2000/svg">
<path d="M62.7571 30.0394L61.4705 30.4685C56.7053 20.36 51.9402 13.2555 47.175 9.15486C42.4099 4.95888 37.3111 2.86089 31.8789 2.86089C27.0184 2.86089 23.2063 4.33902 20.4425 7.29528C17.6787 10.1562 16.2968 14.0184 16.2968 18.8819C16.2968 21.4567 16.7733 23.8885 17.7264 26.1772C18.7747 28.4659 19.9183 30.3731 21.1573 31.8989C22.3962 33.4248 24.3023 35.0459 26.8755 36.7625C29.5439 38.479 31.6883 39.7664 33.3084 40.6247C35.0239 41.4829 37.5971 42.7227 41.028 44.3438C44.6495 46.1557 47.5086 47.6339 49.6052 48.7782C51.7019 49.8272 54.1798 51.4484 57.0389 53.6417C59.9933 55.7397 62.2329 57.8377 63.7578 59.9357C65.3779 62.0337 66.7598 64.7038 67.9034 67.9462C69.1424 71.1885 69.7618 74.717 69.7618 78.5315C69.7618 88.64 66.2356 96.269 59.1832 101.419C52.1308 106.473 43.1723 109 32.3077 109C22.6821 109 12.8659 107.14 2.85909 103.421L0 76.958L1.14364 76.5289C6.57591 86.7327 12.1511 94.2187 17.8693 98.9869C23.5875 103.755 29.7346 106.139 36.3105 106.139C42.5052 106.139 47.2703 104.28 50.6059 100.56C53.9415 96.7458 55.6093 92.0731 55.6093 86.542C55.6093 80.3434 53.6556 75.2892 49.7482 71.3793C45.9361 67.4694 40.5038 63.7979 33.4514 60.3648C30.497 58.9344 28.3527 57.8854 27.0184 57.2179C25.6842 56.5503 23.7305 55.4536 21.1573 53.9278C18.5841 52.402 16.6304 51.1146 15.2961 50.0656C14.0572 49.0166 12.5324 47.6339 10.7216 45.9173C8.91084 44.1054 7.57659 42.3889 6.71887 40.7677C5.95644 39.0512 5.24167 37.0486 4.57455 34.7598C3.90743 32.3758 3.57387 29.8963 3.57387 27.3215C3.57387 18.0713 6.71887 11.2052 13.0089 6.7231C19.2989 2.24103 27.1614 0 36.5964 0C44.5065 0 52.2737 1.38276 59.898 4.14829L62.7571 30.0394Z" fill="white"/>
<path d="M99.6181 109C88.9442 109 83.6072 103.231 83.6072 91.6916V41.1969H75.8877V40.3386L96.6161 22.458H98.0456V38.6221H116.487V41.1969H98.0456V91.2625C98.0456 98.3193 101.381 101.848 108.052 101.848C111.674 101.848 114.819 101.037 117.487 99.416L117.916 99.9882C113.628 105.996 107.528 109 99.6181 109Z" fill="white"/>
<path d="M127.931 106.854V106.568C130.123 100.084 131.219 90.9287 131.219 79.1037V62.2244C131.219 54.6907 129.075 48.4921 124.786 43.6286V43.3425L144.943 35.7612V53.2126H145.514C148.564 49.5888 150.804 46.9663 152.233 45.3451C153.663 43.724 155.95 41.8644 159.095 39.7664C162.335 37.5731 165.385 36.4764 168.244 36.4764L167.958 53.9278H167.386C166.147 52.8788 164.098 51.9252 161.239 51.0669C158.476 50.1133 156.284 49.6365 154.663 49.6365C151.709 49.6365 148.659 51.7822 145.514 56.0735V78.9606C145.514 91.6439 146.563 100.846 148.659 106.568V106.854H127.931Z" fill="white"/>
<path d="M234.941 87.8294C232.94 94.1234 229.509 99.2253 224.649 103.135C219.788 107.045 213.784 109 206.636 109C197.201 109 189.482 105.71 183.478 99.1299C177.474 92.4545 174.472 84.0626 174.472 73.9541C174.472 63.0827 177.855 54.1186 184.621 47.0617C191.483 40.0048 199.107 36.4764 207.494 36.4764C215.5 36.4764 222.123 39.4803 227.365 45.4882C232.702 51.4007 235.18 57.6947 234.798 64.3701H188.91V67.0879C188.91 76.9103 191.15 84.3486 195.629 89.4029C200.108 94.3618 206.208 96.8412 213.927 96.8412C222.123 96.8412 228.842 93.6465 234.084 87.2572L234.941 87.8294ZM206.922 39.0512C201.681 39.0512 197.535 41.1968 194.485 45.4882C191.531 49.6842 189.768 55.2152 189.196 62.0814L220.217 61.3661V59.7927C220.217 45.965 215.785 39.0512 206.922 39.0512Z" fill="white"/>
<path d="M267.04 101.276C271.901 101.276 275.808 99.8928 278.763 97.1273V75.3845C263.991 78.7222 256.605 84.301 256.605 92.1207C256.605 94.9816 257.51 97.2227 259.321 98.8438C261.131 100.465 263.705 101.276 267.04 101.276ZM290.914 108.571C284.242 108.571 280.287 105.567 279.048 99.5591C273.521 105.853 266.659 109 258.463 109C253.984 109 250.315 107.951 247.455 105.853C244.596 103.755 243.167 100.751 243.167 96.8412C243.167 92.3591 245.168 88.3539 249.171 84.8255C253.174 81.297 257.653 78.6745 262.609 76.958C267.66 75.1461 273.044 73.811 278.763 72.9528V57.3609C278.763 53.3556 277.762 50.304 275.76 48.206C273.759 46.1081 270.376 45.0591 265.611 45.0591C258.177 45.0591 251.839 47.2047 246.598 51.4961L245.883 50.6378C252.459 41.1969 261.942 36.4764 274.331 36.4764C280.907 36.4764 285.672 38.0975 288.626 41.3399C291.581 44.4869 293.058 48.5398 293.058 53.4987V94.2664C293.058 98.4624 294.916 100.56 298.633 100.56C301.016 100.56 303.351 99.6544 305.638 97.8425L305.924 98.1286C302.398 105.09 297.394 108.571 290.914 108.571Z" fill="white"/>
<path d="M332.518 106.854H311.79V106.568C313.981 100.084 315.077 90.9287 315.077 79.1037V62.2244C315.077 54.6907 312.933 48.4921 308.645 43.6286V43.3425L328.801 35.7612V49.4934L329.373 49.6365C335.282 40.8631 342.572 36.4764 351.245 36.4764C361.252 36.4764 366.875 40.8154 368.114 49.4934L368.542 49.6365C374.547 40.8631 381.885 36.4764 390.557 36.4764C402.089 36.4764 407.855 42.818 407.855 55.5013V78.9606C407.855 86.3036 407.998 91.8346 408.284 95.5538C408.665 99.273 409.57 102.944 411 106.568V106.854H390.415V106.568C392.511 99.7975 393.56 90.6426 393.56 79.1037V58.7913C393.56 49.7318 390.033 45.2021 382.981 45.2021C376.786 45.2021 371.973 47.7769 368.542 52.9265V78.9606C368.542 86.1129 368.733 91.5962 369.114 95.4108C369.496 99.1299 370.401 102.849 371.83 106.568V106.854H351.102V106.568C353.199 100.465 354.247 91.3102 354.247 79.1037V58.7913C354.247 49.7318 350.721 45.2021 343.668 45.2021C337.569 45.2021 332.804 47.7769 329.373 52.9265V78.9606C329.373 91.6439 330.421 100.846 332.518 106.568V106.854Z" fill="white"/>
</svg>
