<svg width="402" height="170" viewBox="0 0 402 170" fill="none" xmlns="http://www.w3.org/2000/svg">
<path d="M66.8549 40.8475L65.4843 41.3559C60.408 29.3785 55.3317 20.9605 50.2554 16.1017C45.1791 11.1299 39.7474 8.64407 33.9604 8.64407C28.7826 8.64407 24.7216 10.3955 21.7773 13.8983C18.8331 17.2881 17.3609 21.8644 17.3609 27.6271C17.3609 30.678 17.8686 33.5593 18.8838 36.2712C20.0006 38.9831 21.2189 41.2429 22.5388 43.0508C23.8586 44.8588 25.8891 46.7797 28.6303 48.8136C31.4731 50.8475 33.7574 52.3729 35.4833 53.3898C37.3108 54.4068 40.052 55.8757 43.7069 57.7966C47.5649 59.9435 50.6107 61.6949 52.8443 63.0508C55.0778 64.2938 57.7175 66.2147 60.7633 68.8136C63.9106 71.2994 66.2965 73.7853 67.9209 76.2712C69.6468 78.7571 71.1189 81.9209 72.3373 85.7627C73.6571 89.6045 74.317 93.7853 74.317 98.3051C74.317 110.282 70.5606 119.322 63.0476 125.424C55.5347 131.412 45.9913 134.407 34.4173 134.407C24.1632 134.407 13.706 132.203 3.04578 127.797L0 96.4407L1.21831 95.9322C7.00529 108.023 12.9446 116.893 19.0361 122.542C25.1277 128.192 31.6761 131.017 38.6814 131.017C45.2806 131.017 50.3569 128.814 53.9103 124.407C57.4637 119.887 59.2404 114.35 59.2404 107.797C59.2404 100.452 57.1591 94.4633 52.9966 89.8305C48.9355 85.1977 43.1485 80.8475 35.6356 76.7797C32.4883 75.0847 30.204 73.8418 28.7826 73.0508C27.3612 72.2599 25.28 70.9605 22.5388 69.1525C19.7976 67.3446 17.7163 65.8192 16.2949 64.5763C14.9751 63.3333 13.3507 61.6949 11.4217 59.661C9.49268 57.5141 8.07132 55.4802 7.15758 53.5593C6.34537 51.5254 5.58393 49.1525 4.87325 46.4407C4.16257 43.6158 3.80722 40.678 3.80722 37.6271C3.80722 26.6667 7.15758 18.5311 13.8583 13.2203C20.559 7.90961 28.9349 5.25424 38.986 5.25424C47.4126 5.25424 55.687 6.89266 63.8091 10.1695L66.8549 40.8475Z" fill="white"/>
<path d="M124.38 131.356C130.471 131.356 135.344 127.966 138.999 121.186C142.654 114.407 144.482 105.254 144.482 93.7288C144.482 82.0904 142.502 73.5028 138.542 67.9661C134.583 62.3164 129.151 59.4915 122.248 59.4915C115.75 59.4915 110.115 61.8079 105.344 66.4407V100.508C105.344 111.243 107.273 119.096 111.13 124.068C114.988 128.927 119.405 131.356 124.38 131.356ZM86.612 170V169.661C88.9471 161.977 90.1146 151.13 90.1146 137.119V78.983C90.1146 70.0565 87.8303 62.7119 83.2616 56.9492V56.6102L104.734 47.6271V62.5424L105.648 62.7119C113.161 53.2203 121.791 48.4746 131.537 48.4746C140.167 48.4746 147.121 52.4294 152.401 60.339C157.782 68.1356 160.472 78.1921 160.472 90.5085C160.472 103.277 157.223 113.785 150.726 122.034C144.228 130.282 134.938 134.407 122.857 134.407C116.055 134.407 110.217 133.107 105.344 130.508V136.949C105.344 151.864 106.46 162.768 108.694 169.661V170H86.612Z" fill="white"/>
<path d="M233.328 109.322C231.196 116.78 227.541 122.825 222.363 127.458C217.185 132.09 210.789 134.407 203.175 134.407C193.124 134.407 184.9 130.508 178.504 122.712C172.108 114.802 168.91 104.859 168.91 92.8814C168.91 80 172.514 69.3785 179.722 61.017C187.032 52.6554 195.154 48.4746 204.089 48.4746C212.617 48.4746 219.673 52.0339 225.257 59.1525C230.942 66.1582 233.582 73.6158 233.176 81.5254H184.291V84.7458C184.291 96.3842 186.677 105.198 191.449 111.186C196.22 117.062 202.718 120 210.942 120C219.673 120 226.83 116.215 232.414 108.644L233.328 109.322ZM203.479 51.5254C197.896 51.5254 193.479 54.0678 190.23 59.1525C187.083 64.1243 185.205 70.678 184.596 78.8136L217.642 77.9661V76.1017C217.642 59.7175 212.921 51.5254 203.479 51.5254Z" fill="white"/>
<path d="M266.932 131.864H244.85V131.525C247.185 123.842 248.352 112.994 248.352 98.9831V78.983C248.352 70.0565 246.068 62.7119 241.499 56.9492V56.6102L262.972 47.6271V63.8983L263.581 64.0678C271.297 53.6723 279.47 48.4746 288.1 48.4746C295.004 48.4746 300.283 50.678 303.938 55.0848C307.694 59.3785 309.573 65.3672 309.573 73.0508V98.8136C309.573 107.288 309.776 113.785 310.182 118.305C310.588 122.712 311.552 127.119 313.075 131.525V131.864H290.993V131.525C293.227 123.503 294.344 112.655 294.344 98.9831V76.9492C294.344 71.6384 293.176 67.2881 290.841 63.8983C288.607 60.5085 285.105 58.8136 280.333 58.8136C273.937 58.8136 268.353 61.6384 263.581 67.2881V98.8136C263.581 113.842 264.698 124.746 266.932 131.525V131.864Z" fill="white"/>
<path d="M361.796 123.051C369.106 123.051 375.096 120 379.766 113.898V70.339C377.228 57.7966 371.441 51.5254 362.405 51.5254C355.806 51.5254 350.526 55.0282 346.567 62.0339C342.607 69.0395 340.628 78.1356 340.628 89.322C340.628 99.7175 342.404 107.966 345.958 114.068C349.613 120.056 354.892 123.051 361.796 123.051ZM379.918 117.288C377.482 122.147 373.979 126.215 369.41 129.492C364.943 132.768 359.765 134.407 353.877 134.407C345.044 134.407 337.937 130.734 332.556 123.39C327.277 115.932 324.637 106.497 324.637 95.0847C324.637 81.9774 328.14 70.9604 335.145 62.0339C342.15 52.9943 351.897 48.4746 364.385 48.4746C369.969 48.4746 375.096 49.4915 379.766 51.5254V31.3559C379.766 22.4294 377.482 15.0847 372.913 9.32203V8.98306L394.995 0V95.7627C394.995 106.723 395.452 114.237 396.365 118.305C397.381 122.26 399.259 125.537 402 128.136V128.475L380.375 133.898V117.288H379.918Z" fill="white"/>
</svg>
